<svg width="1069" height="366" viewBox="0 0 1069 366" fill="none" xmlns="http://www.w3.org/2000/svg">
<g clip-path="url(#clip0_169_35)">
<path d="M878 342C878 342 893.75 327.074 893.75 315.75C893.75 311.573 892.091 307.567 889.137 304.613C886.183 301.659 882.177 300 878 300C873.823 300 869.817 301.659 866.863 304.613C863.909 307.567 862.25 311.573 862.25 315.75C862.25 327.074 878 342 878 342ZM878 323.625C875.911 323.625 873.908 322.795 872.432 321.318C870.955 319.842 870.125 317.839 870.125 315.75C870.125 313.661 870.955 311.658 872.432 310.182C873.908 308.705 875.911 307.875 878 307.875C880.089 307.875 882.092 308.705 883.568 310.182C885.045 311.658 885.875 313.661 885.875 315.75C885.875 317.839 885.045 319.842 883.568 321.318C882.092 322.795 880.089 323.625 878 323.625Z" fill="#00B894"/>
</g>
<g clip-path="url(#clip1_169_35)">
<path d="M520 71C520 71 535.75 56.0743 535.75 44.75C535.75 40.5728 534.091 36.5668 531.137 33.6131C528.183 30.6594 524.177 29 520 29C515.823 29 511.817 30.6594 508.863 33.6131C505.909 36.5668 504.25 40.5728 504.25 44.75C504.25 56.0743 520 71 520 71ZM520 52.625C517.911 52.625 515.908 51.7953 514.432 50.3185C512.955 48.8416 512.125 46.8386 512.125 44.75C512.125 42.6614 512.955 40.6584 514.432 39.1815C515.908 37.7047 517.911 36.875 520 36.875C522.089 36.875 524.092 37.7047 525.568 39.1815C527.045 40.6584 527.875 42.6614 527.875 44.75C527.875 46.8386 527.045 48.8416 525.568 50.3185C524.092 51.7953 522.089 52.625 520 52.625Z" fill="#00B894"/>
</g>
<path d="M37.3158 146.925C37.3158 152.816 42.0914 157.592 47.9824 157.592C53.8735 157.592 58.6491 152.816 58.6491 146.925C58.6491 141.034 53.8735 136.259 47.9824 136.259C42.0914 136.259 37.3158 141.034 37.3158 146.925ZM470.5 147L472.136 148.15L470.5 147ZM656.001 157.5L657.44 156.111L656.001 157.5ZM805.468 326.171L806.958 324.836L806.958 324.836L805.468 326.171ZM952.585 302.474L954.414 303.283L952.585 302.474ZM1009.83 146.925C1009.83 152.816 1014.61 157.592 1020.5 157.592C1026.39 157.592 1031.17 152.816 1031.17 146.925C1031.17 141.034 1026.39 136.259 1020.5 136.259C1014.61 136.259 1009.83 141.034 1009.83 146.925ZM48.0602 151.215C48.5985 152.18 49.8167 152.525 50.7813 151.987C51.7458 151.449 52.0914 150.23 51.5532 149.266L48.0602 151.215ZM59.3061 162.467C58.7271 161.526 57.4952 161.233 56.5545 161.812C55.6138 162.391 55.3206 163.623 55.8996 164.563L59.3061 162.467ZM60.0104 171.103C60.607 172.032 61.8442 172.302 62.7738 171.706C63.7034 171.109 63.9735 169.872 63.377 168.942L60.0104 171.103ZM76.2841 187.965C75.6418 187.066 74.3927 186.858 73.494 187.501C72.5953 188.143 72.3875 189.392 73.0297 190.291L76.2841 187.965ZM77.5778 196.553C78.2337 197.441 79.4859 197.63 80.3747 196.974C81.2634 196.318 81.4522 195.066 80.7963 194.177L77.5778 196.553ZM90.079 206.376C89.3974 205.507 88.1403 205.355 87.271 206.036C86.4018 206.718 86.2497 207.975 86.9312 208.844L90.079 206.376ZM91.7279 214.873C92.4217 215.733 93.6809 215.867 94.5404 215.173C95.3999 214.479 95.5342 213.22 94.8404 212.361L91.7279 214.873ZM109.658 229.947C108.929 229.118 107.665 229.036 106.835 229.766C106.006 230.495 105.924 231.759 106.654 232.588L109.658 229.947ZM111.798 238.358C112.539 239.177 113.804 239.241 114.623 238.5C115.442 237.759 115.506 236.494 114.765 235.675L111.798 238.358ZM125.205 246.893C124.441 246.095 123.175 246.068 122.377 246.832C121.58 247.596 121.553 248.863 122.317 249.66L125.205 246.893ZM127.698 255.196C128.474 255.982 129.741 255.991 130.527 255.215C131.313 254.439 131.322 253.173 130.546 252.387L127.698 255.196ZM147.064 268.373C146.253 267.624 144.987 267.675 144.238 268.487C143.489 269.299 143.54 270.564 144.352 271.313L147.064 268.373ZM150.065 276.498C150.89 277.233 152.154 277.161 152.889 276.337C153.625 275.512 153.553 274.248 152.728 273.513L150.065 276.498ZM164.335 283.505C163.485 282.8 162.224 282.917 161.518 283.767C160.813 284.617 160.931 285.878 161.781 286.583L164.335 283.505ZM167.786 291.469C168.649 292.158 169.908 292.016 170.597 291.153C171.285 290.289 171.144 289.031 170.28 288.342L167.786 291.469ZM188.668 302.077C187.761 301.446 186.514 301.67 185.884 302.577C185.253 303.483 185.477 304.73 186.383 305.361L188.668 302.077ZM192.772 309.69C193.694 310.298 194.934 310.043 195.543 309.121C196.151 308.199 195.896 306.958 194.974 306.35L192.772 309.69ZM207.967 314.419C207.012 313.864 205.788 314.187 205.232 315.142C204.677 316.097 205 317.321 205.955 317.876L207.967 314.419ZM212.69 321.657C213.662 322.182 214.876 321.82 215.401 320.848C215.926 319.876 215.564 318.663 214.592 318.137L212.69 321.657ZM235.243 327.879C234.218 327.469 233.054 327.968 232.644 328.994C232.234 330.019 232.733 331.183 233.758 331.593L235.243 327.879ZM241.084 334.328C242.128 334.69 243.267 334.137 243.628 333.093C243.99 332.049 243.437 330.91 242.393 330.549L241.084 334.328ZM256.93 334.732C255.853 334.488 254.782 335.163 254.538 336.24C254.294 337.317 254.969 338.389 256.046 338.633L256.93 334.732ZM263.736 340.117C264.826 340.291 265.851 339.547 266.024 338.456C266.197 337.365 265.453 336.34 264.363 336.167L263.736 340.117ZM286.87 337.114C285.769 337.208 284.954 338.177 285.048 339.277C285.143 340.378 286.111 341.193 287.212 341.099L286.87 337.114ZM295.018 340.053C296.104 339.853 296.823 338.811 296.623 337.724C296.424 336.638 295.381 335.919 294.295 336.119L295.018 340.053ZM308.629 331.935C307.607 332.353 307.117 333.521 307.535 334.543C307.953 335.566 309.121 336.056 310.143 335.638L308.629 331.935ZM317.274 332.277C318.247 331.755 318.613 330.543 318.091 329.569C317.569 328.596 316.356 328.23 315.383 328.752L317.274 332.277ZM333.358 315.381C332.57 316.155 332.559 317.421 333.333 318.209C334.107 318.997 335.374 319.008 336.162 318.234L333.358 315.381ZM341.608 312.535C342.362 311.727 342.318 310.462 341.511 309.708C340.703 308.954 339.438 308.998 338.684 309.805L341.608 312.535ZM349.047 298.631C348.299 299.444 348.351 300.709 349.163 301.457C349.976 302.205 351.241 302.153 351.989 301.341L349.047 298.631ZM357.168 295.697C357.913 294.881 357.856 293.616 357.041 292.871C356.226 292.126 354.961 292.183 354.216 292.998L357.168 295.697ZM369.506 276.053C368.772 276.878 368.845 278.142 369.671 278.876C370.496 279.61 371.76 279.537 372.494 278.712L369.506 276.053ZM377.575 272.971C378.305 272.142 378.225 270.879 377.396 270.149C376.567 269.419 375.303 269.499 374.573 270.328L377.575 272.971ZM384.589 258.818C383.869 259.655 383.965 260.918 384.803 261.638C385.64 262.358 386.903 262.262 387.623 261.425L384.589 258.818ZM392.588 255.609C393.302 254.766 393.198 253.504 392.356 252.79C391.513 252.075 390.251 252.179 389.537 253.022L392.588 255.609ZM404.101 235.441C403.407 236.3 403.54 237.559 404.4 238.253C405.259 238.947 406.518 238.814 407.212 237.954L404.101 235.441ZM412.005 231.967C412.692 231.102 412.546 229.844 411.681 229.157C410.816 228.471 409.558 228.616 408.871 229.481L412.005 231.967ZM418.223 217.458C417.553 218.336 417.722 219.591 418.601 220.261C419.479 220.931 420.734 220.761 421.404 219.883L418.223 217.458ZM426.007 213.783C426.668 212.899 426.487 211.645 425.602 210.984C424.717 210.323 423.464 210.504 422.803 211.389L426.007 213.783ZM436.232 192.895C435.594 193.797 435.808 195.045 436.709 195.683C437.611 196.321 438.859 196.107 439.497 195.206L436.232 192.895ZM443.893 188.951C444.525 188.046 444.304 186.799 443.398 186.166C442.492 185.534 441.246 185.755 440.613 186.661L443.893 188.951ZM449.295 174.121C448.669 175.031 448.899 176.277 449.809 176.903C450.718 177.529 451.964 177.299 452.59 176.389L449.295 174.121ZM456.916 170.099C457.542 169.189 457.311 167.944 456.401 167.318C455.491 166.692 454.246 166.923 453.62 167.833L456.916 170.099ZM466.658 148.995C466.025 149.9 466.246 151.147 467.151 151.78C468.056 152.413 469.303 152.193 469.936 151.288L466.658 148.995ZM474.572 144.682C475.206 143.778 474.988 142.531 474.084 141.896C473.179 141.262 471.932 141.48 471.298 142.384L474.572 144.682ZM481.092 128.581C480.443 129.475 480.642 130.726 481.536 131.375C482.43 132.023 483.681 131.824 484.329 130.93L481.092 128.581ZM489.337 124.169C490.005 123.289 489.833 122.035 488.953 121.367C488.073 120.699 486.819 120.871 486.151 121.751L489.337 124.169ZM502.856 102.337C502.066 103.109 502.052 104.375 502.824 105.165C503.596 105.955 504.863 105.969 505.653 105.197L502.856 102.337ZM511.806 99.6766C512.663 98.9787 512.791 97.7189 512.093 96.8627C511.395 96.0065 510.136 95.8781 509.279 96.5759L511.806 99.6766ZM523.997 87.3488C522.987 87.7963 522.531 88.9777 522.978 89.9876C523.426 90.9974 524.607 91.4533 525.617 91.0058L523.997 87.3488ZM533.261 88.3596C534.332 88.0898 534.982 87.0028 534.712 85.9317C534.442 84.8606 533.355 84.211 532.284 84.4808L533.261 88.3596ZM558.329 84.5844C557.252 84.3364 556.179 85.0079 555.931 86.0843C555.683 87.1607 556.354 88.2343 557.43 88.4823L558.329 84.5844ZM565.3 90.7736C566.343 91.1378 567.483 90.5877 567.847 89.5449C568.212 88.5021 567.662 87.3615 566.619 86.9973L565.3 90.7736ZM582.286 93.9974C581.312 93.4748 580.1 93.8401 579.577 94.8132C579.055 95.7864 579.42 96.9989 580.393 97.5214L582.286 93.9974ZM587.613 101.673C588.555 102.25 589.787 101.953 590.363 101.011C590.939 100.069 590.643 98.8375 589.7 98.2611L587.613 101.673ZM610.657 112.979C609.788 112.297 608.531 112.449 607.849 113.318C607.167 114.187 607.319 115.444 608.188 116.126L610.657 112.979ZM614.717 121.397C615.567 122.102 616.828 121.985 617.533 121.135C618.238 120.284 618.121 119.023 617.271 118.318L614.717 121.397ZM630.054 129.426C629.236 128.684 627.971 128.746 627.229 129.565C626.488 130.383 626.55 131.648 627.368 132.39L630.054 129.426ZM633.596 138.139C634.401 138.896 635.667 138.856 636.423 138.051C637.179 137.247 637.14 135.981 636.335 135.224L633.596 138.139ZM654.416 152.997C653.644 152.207 652.378 152.193 651.588 152.965C650.798 153.737 650.783 155.003 651.555 155.793L654.416 152.997ZM657.401 161.832C658.167 162.628 659.434 162.651 660.229 161.884C661.024 161.118 661.048 159.852 660.281 159.057L657.401 161.832ZM671.447 170.688C670.683 169.889 669.417 169.861 668.619 170.624C667.821 171.388 667.792 172.654 668.556 173.452L671.447 170.688ZM674.079 179.24C674.84 180.04 676.106 180.071 676.906 179.309C677.706 178.548 677.737 177.282 676.975 176.482L674.079 179.24ZM693.614 194.071C692.858 193.266 691.592 193.226 690.787 193.983C689.982 194.739 689.943 196.005 690.699 196.81L693.614 194.071ZM696.204 202.683C696.958 203.49 698.223 203.533 699.03 202.779C699.837 202.024 699.88 200.759 699.126 199.952L696.204 202.683ZM710.102 211.754C709.352 210.943 708.086 210.894 707.275 211.644C706.465 212.394 706.415 213.659 707.165 214.47L710.102 211.754ZM712.62 220.383C713.368 221.196 714.633 221.249 715.446 220.501C716.259 219.753 716.312 218.488 715.564 217.675L712.62 220.383ZM731.852 235.547C731.112 234.727 729.847 234.662 729.027 235.402C728.207 236.142 728.142 237.407 728.882 238.227L731.852 235.547ZM734.26 244.207C734.997 245.029 736.262 245.099 737.084 244.361C737.907 243.624 737.976 242.36 737.239 241.537L734.26 244.207ZM747.927 253.557C747.197 252.728 745.933 252.649 745.104 253.38C744.276 254.111 744.197 255.375 744.928 256.203L747.927 253.557ZM750.227 262.237C750.954 263.068 752.218 263.153 753.049 262.426C753.881 261.698 753.965 260.435 753.238 259.603L750.227 262.237ZM769.047 277.951C768.333 277.109 767.071 277.005 766.228 277.719C765.386 278.433 765.282 279.696 765.996 280.538L769.047 277.951ZM771.187 286.696C771.896 287.543 773.157 287.655 774.004 286.945C774.851 286.236 774.962 284.975 774.253 284.128L771.187 286.696ZM784.522 296.557C783.825 295.701 782.565 295.572 781.708 296.269C780.852 296.967 780.723 298.226 781.42 299.083L784.522 296.557ZM786.444 305.304C787.135 306.166 788.394 306.305 789.256 305.614C790.118 304.923 790.257 303.665 789.566 302.803L786.444 305.304ZM804.486 321.828C803.802 320.961 802.545 320.812 801.677 321.496C800.81 322.18 800.661 323.437 801.345 324.305L804.486 321.828ZM807.041 330.814C807.805 331.612 809.071 331.64 809.869 330.877C810.667 330.113 810.695 328.847 809.932 328.049L807.041 330.814ZM822.835 339.877C821.972 339.187 820.714 339.327 820.024 340.19C819.334 341.052 819.474 342.311 820.336 343.001L822.835 339.877ZM827.584 348.391C828.493 349.018 829.739 348.789 830.366 347.88C830.992 346.97 830.763 345.725 829.854 345.098L827.584 348.391ZM852.968 357.208C851.93 356.831 850.782 357.366 850.405 358.404C850.027 359.442 850.562 360.589 851.6 360.967L852.968 357.208ZM860.296 363.636C861.368 363.903 862.453 363.251 862.721 362.179C862.988 361.108 862.336 360.022 861.265 359.755L860.296 363.636ZM878.372 361.924C877.268 361.924 876.373 362.82 876.373 363.925C876.374 365.029 877.27 365.924 878.374 365.924L878.372 361.924ZM887.509 365.295C888.603 365.142 889.366 364.132 889.214 363.038C889.062 361.944 888.051 361.181 886.957 361.333L887.509 365.295ZM911.043 352.54C910.103 353.121 909.813 354.354 910.394 355.293C910.975 356.233 912.208 356.523 913.147 355.942L911.043 352.54ZM920.599 350.676C921.461 349.986 921.602 348.727 920.912 347.865C920.223 347.002 918.964 346.861 918.101 347.551L920.599 350.676ZM930.476 335.351C929.766 336.198 929.876 337.459 930.722 338.169C931.569 338.879 932.83 338.769 933.54 337.922L930.476 335.351ZM939.05 330.787C939.691 329.887 939.481 328.638 938.581 327.997C937.682 327.357 936.433 327.566 935.792 328.466L939.05 330.787ZM948.903 305.725C948.433 306.724 948.861 307.916 949.861 308.386C950.86 308.857 952.052 308.428 952.522 307.429L948.903 305.725ZM956.064 299.551C956.511 298.54 956.054 297.359 955.044 296.913C954.034 296.466 952.853 296.923 952.406 297.933L956.064 299.551ZM958.938 283.156C958.492 284.166 958.949 285.347 959.959 285.793C960.969 286.24 962.15 285.783 962.597 284.772L958.938 283.156ZM965.862 277.381C966.308 276.371 965.851 275.19 964.841 274.744C963.83 274.297 962.649 274.755 962.203 275.765L965.862 277.381ZM971.995 253.58C971.549 254.59 972.007 255.771 973.018 256.217C974.029 256.662 975.209 256.204 975.655 255.194L971.995 253.58ZM978.915 247.798C979.36 246.787 978.902 245.607 977.891 245.161C976.88 244.716 975.7 245.174 975.255 246.185L978.915 247.798ZM981.754 231.422C981.309 232.433 981.769 233.613 982.78 234.057C983.791 234.502 984.971 234.043 985.416 233.032L981.754 231.422ZM988.679 225.609C989.123 224.597 988.663 223.417 987.652 222.973C986.64 222.529 985.461 222.989 985.016 224L988.679 225.609ZM994.745 201.8C994.302 202.812 994.764 203.991 995.776 204.433C996.789 204.875 997.968 204.413 998.41 203.401L994.745 201.8ZM1001.64 195.989C1002.09 194.977 1001.62 193.798 1000.61 193.357C999.597 192.916 998.418 193.379 997.977 194.391L1001.64 195.989ZM1004.41 179.585C1003.97 180.598 1004.44 181.776 1005.45 182.214C1006.46 182.653 1007.64 182.187 1008.08 181.173L1004.41 179.585ZM1011.28 173.745C1011.72 172.731 1011.25 171.554 1010.24 171.118C1009.22 170.681 1008.05 171.149 1007.61 172.164L1011.28 173.745ZM1017.1 149.869C1016.67 150.888 1017.15 152.06 1018.17 152.487C1019.19 152.915 1020.36 152.436 1020.79 151.417L1017.1 149.869ZM46.2244 147.879C46.8242 148.985 47.4363 150.097 48.0602 151.215L51.5532 149.266C50.9368 148.161 50.3325 147.063 49.7404 145.972L46.2244 147.879ZM55.8996 164.563C57.2318 166.728 58.6026 168.909 60.0104 171.103L63.377 168.942C61.9823 166.769 60.6249 164.61 59.3061 162.467L55.8996 164.563ZM73.0297 190.291C74.5181 192.373 76.0346 194.461 77.5778 196.553L80.7963 194.177C79.265 192.102 77.7605 190.031 76.2841 187.965L73.0297 190.291ZM86.9312 208.844C88.5079 210.855 90.1072 212.865 91.7279 214.873L94.8404 212.361C93.2315 210.367 91.644 208.372 90.079 206.376L86.9312 208.844ZM106.654 232.588C108.351 234.519 110.067 236.443 111.798 238.358L114.765 235.675C113.046 233.774 111.343 231.864 109.658 229.947L106.654 232.588ZM122.317 249.66C124.097 251.518 125.891 253.364 127.698 255.196L130.546 252.387C128.752 250.569 126.972 248.737 125.205 246.893L122.317 249.66ZM144.352 271.313C146.246 273.061 148.151 274.789 150.065 276.498L152.728 273.513C150.831 271.82 148.942 270.106 147.064 268.373L144.352 271.313ZM161.781 286.583C163.774 288.238 165.777 289.867 167.786 291.469L170.28 288.342C168.291 286.756 166.309 285.143 164.335 283.505L161.781 286.583ZM186.383 305.361C188.509 306.839 190.639 308.283 192.772 309.69L194.974 306.35C192.869 304.962 190.767 303.537 188.668 302.077L186.383 305.361ZM205.955 317.876C208.199 319.182 210.445 320.443 212.69 321.657L214.592 318.137C212.385 316.945 210.176 315.705 207.967 314.419L205.955 317.876ZM233.758 331.593C236.206 332.572 238.648 333.485 241.084 334.328L242.393 330.549C240.019 329.726 237.635 328.836 235.243 327.879L233.758 331.593ZM256.046 338.633C258.622 339.216 261.185 339.713 263.736 340.117L264.363 336.167C261.902 335.776 259.424 335.297 256.93 334.732L256.046 338.633ZM287.212 341.099C289.84 340.873 292.443 340.526 295.018 340.053L294.295 336.119C291.849 336.569 289.374 336.899 286.87 337.114L287.212 341.099ZM310.143 335.638C312.556 334.651 314.934 333.532 317.274 332.277L315.383 328.752C313.166 329.942 310.914 331.001 308.629 331.935L310.143 335.638ZM336.162 318.234C337.104 317.308 338.037 316.353 338.96 315.367L336.04 312.633C335.155 313.579 334.261 314.494 333.358 315.381L336.162 318.234ZM338.96 315.367C339.85 314.416 340.733 313.472 341.608 312.535L338.684 309.805C337.811 310.741 336.929 311.683 336.04 312.633L338.96 315.367ZM351.989 301.341C353.749 299.43 355.475 297.549 357.168 295.697L354.216 292.998C352.526 294.846 350.804 296.724 349.047 298.631L351.989 301.341ZM372.494 278.712C374.227 276.765 375.92 274.852 377.575 272.971L374.573 270.328C372.922 272.203 371.234 274.111 369.506 276.053L372.494 278.712ZM387.623 261.425C389.32 259.45 390.974 257.512 392.588 255.609L389.537 253.022C387.929 254.918 386.281 256.849 384.589 258.818L387.623 261.425ZM407.212 237.954C408.854 235.922 410.45 233.928 412.005 231.967L408.871 229.481C407.324 231.433 405.735 233.418 404.101 235.441L407.212 237.954ZM421.404 219.883C422.977 217.82 424.509 215.789 426.007 213.783L422.803 211.389C421.312 213.384 419.788 215.405 418.223 217.458L421.404 219.883ZM439.497 195.206C440.977 193.114 442.439 191.032 443.893 188.951L440.613 186.661C439.164 188.736 437.706 190.812 436.232 192.895L439.497 195.206ZM452.59 176.389C454.022 174.309 455.461 172.215 456.916 170.099L453.62 167.833C452.165 169.949 450.726 172.042 449.295 174.121L452.59 176.389ZM469.936 151.288C470.661 150.251 471.394 149.205 472.136 148.15L468.864 145.85C468.12 146.907 467.385 147.955 466.658 148.995L469.936 151.288ZM472.136 148.15C472.953 146.989 473.764 145.832 474.572 144.682L471.298 142.384C470.49 143.535 469.679 144.69 468.864 145.85L472.136 148.15ZM484.329 130.93C486.003 128.623 487.67 126.366 489.337 124.169L486.151 121.751C484.463 123.976 482.778 126.257 481.092 128.581L484.329 130.93ZM505.653 105.197C507.674 103.221 509.722 101.376 511.806 99.6766L509.279 96.5759C507.09 98.36 504.953 100.287 502.856 102.337L505.653 105.197ZM525.617 91.0058C528.09 89.9102 530.633 89.0218 533.261 88.3596L532.284 84.4808C529.425 85.2011 526.667 86.1655 523.997 87.3488L525.617 91.0058ZM557.43 88.4823C559.966 89.0665 562.587 89.8263 565.3 90.7736L566.619 86.9973C563.777 86.005 561.016 85.2036 558.329 84.5844L557.43 88.4823ZM580.393 97.5214C582.739 98.7811 585.144 100.163 587.613 101.673L589.7 98.2611C587.172 96.7145 584.701 95.2947 582.286 93.9974L580.393 97.5214ZM608.188 116.126C610.324 117.802 612.5 119.558 614.717 121.397L617.271 118.318C615.027 116.457 612.823 114.678 610.657 112.979L608.188 116.126ZM627.368 132.39C629.412 134.242 631.487 136.158 633.596 138.139L636.335 135.224C634.21 133.227 632.116 131.295 630.054 129.426L627.368 132.39ZM651.555 155.793C652.551 156.812 653.553 157.844 654.562 158.889L657.44 156.111C656.425 155.06 655.417 154.022 654.416 152.997L651.555 155.793ZM654.562 158.889C655.514 159.875 656.461 160.856 657.401 161.832L660.281 159.057C659.34 158.08 658.393 157.098 657.44 156.111L654.562 158.889ZM668.556 173.452C670.422 175.404 672.263 177.333 674.079 179.24L676.975 176.482C675.158 174.573 673.315 172.641 671.447 170.688L668.556 173.452ZM690.699 196.81C692.564 198.795 694.398 200.752 696.204 202.683L699.126 199.952C697.318 198.018 695.481 196.058 693.614 194.071L690.699 196.81ZM707.165 214.47C709.018 216.473 710.836 218.444 712.62 220.383L715.564 217.675C713.777 215.733 711.957 213.759 710.102 211.754L707.165 214.47ZM728.882 238.227C730.718 240.261 732.51 242.254 734.26 244.207L737.239 241.537C735.486 239.581 733.691 237.584 731.852 235.547L728.882 238.227ZM744.928 256.203C746.748 258.266 748.514 260.277 750.227 262.237L753.238 259.603C751.521 257.639 749.751 255.624 747.927 253.557L744.928 256.203ZM765.996 280.538C767.807 282.673 769.536 284.725 771.187 286.696L774.253 284.128C772.597 282.15 770.863 280.092 769.047 277.951L765.996 280.538ZM781.42 299.083C783.223 301.297 784.894 303.368 786.444 305.304L789.566 302.803C788.01 300.86 786.331 298.78 784.522 296.557L781.42 299.083ZM801.345 324.305C802.414 325.66 803.282 326.727 803.979 327.506L806.958 324.836C806.351 324.159 805.551 323.178 804.486 321.828L801.345 324.305ZM803.979 327.506C804.979 328.622 806 329.725 807.041 330.814L809.932 328.049C808.921 326.992 807.93 325.921 806.958 324.836L803.979 327.506ZM820.336 343.001C822.692 344.886 825.111 346.687 827.584 348.391L829.854 345.098C827.461 343.449 825.119 341.705 822.835 339.877L820.336 343.001ZM851.6 360.967C854.467 362.01 857.369 362.905 860.296 363.636L861.265 359.755C858.479 359.06 855.711 358.206 852.968 357.208L851.6 360.967ZM878.374 365.924C881.418 365.923 884.466 365.718 887.509 365.295L886.957 361.333C884.102 361.73 881.238 361.923 878.372 361.924L878.374 365.924ZM913.147 355.942C915.665 354.384 918.151 352.632 920.599 350.676L918.101 347.551C915.775 349.41 913.42 351.069 911.043 352.54L913.147 355.942ZM933.54 337.922C935.411 335.692 937.249 333.315 939.05 330.787L935.792 328.466C934.05 330.912 932.276 333.206 930.476 335.351L933.54 337.922ZM952.522 307.429C953.16 306.074 953.791 304.692 954.414 303.283L950.755 301.665C950.145 303.046 949.527 304.399 948.903 305.725L952.522 307.429ZM954.414 303.283C954.968 302.029 955.518 300.785 956.064 299.551L952.406 297.933C951.86 299.167 951.31 300.411 950.755 301.665L954.414 303.283ZM962.597 284.772C963.705 282.265 964.793 279.801 965.862 277.381L962.203 275.765C961.134 278.185 960.046 280.648 958.938 283.156L962.597 284.772ZM975.655 255.194C976.766 252.675 977.852 250.21 978.915 247.798L975.255 246.185C974.192 248.597 973.106 251.061 971.995 253.58L975.655 255.194ZM985.416 233.032C986.532 230.493 987.619 228.02 988.679 225.609L985.016 224C983.957 226.41 982.87 228.883 981.754 231.422L985.416 233.032ZM998.41 203.401C999.526 200.847 1000.6 198.379 1001.64 195.989L997.977 194.391C996.937 196.78 995.86 199.247 994.745 201.8L998.41 203.401ZM1008.08 181.173C1009.19 178.595 1010.26 176.123 1011.28 173.745L1007.61 172.164C1006.59 174.539 1005.52 177.009 1004.41 179.585L1008.08 181.173ZM1020.79 151.417C1021.32 150.151 1021.84 148.911 1022.35 147.695L1018.66 146.155C1018.15 147.368 1017.63 148.605 1017.1 149.869L1020.79 151.417Z" fill="#00B894"/>
<path d="M1005.84 104C1007.6 100.6 1009.24 96.64 1010.76 92H1009V84H1013C1015.44 73.6 1017 60.52 1017 44H1025C1025 60.52 1026.6 73.6 1029 84H1033V92H1031.24C1032.76 96.64 1034.4 100.6 1036.16 104H1041V112L1049 124H1039.32C1036.24 116.96 1029.2 112 1021 112C1012.8 112 1005.76 116.96 1002.68 124H993L1001 112L1000.88 104H1005.84ZM1023.36 92H1018.64C1017.43 96.1056 1015.92 100.117 1014.12 104H1027.88C1026.28 100.52 1024.72 96.52 1023.36 92Z" fill="#00B894"/>
<g clip-path="url(#clip2_169_35)">
<path d="M302 309C302 309 317.75 294.074 317.75 282.75C317.75 278.573 316.091 274.567 313.137 271.613C310.183 268.659 306.177 267 302 267C297.823 267 293.817 268.659 290.863 271.613C287.909 274.567 286.25 278.573 286.25 282.75C286.25 294.074 302 309 302 309ZM302 290.625C299.911 290.625 297.908 289.795 296.432 288.318C294.955 286.842 294.125 284.839 294.125 282.75C294.125 280.661 294.955 278.658 296.432 277.182C297.908 275.705 299.911 274.875 302 274.875C304.089 274.875 306.092 275.705 307.568 277.182C309.045 278.658 309.875 280.661 309.875 282.75C309.875 284.839 309.045 286.842 307.568 288.318C306.092 289.795 304.089 290.625 302 290.625Z" fill="#00B894"/>
</g>
<path d="M485.3 15H482.94L489.26 0.999999H491.52L497.86 15H495.46L490.38 3.32L485.3 15ZM505.365 4.24C506.005 4.24 506.598 4.33333 507.145 4.52C507.691 4.70667 508.165 4.99333 508.565 5.38C508.965 5.76667 509.271 6.25333 509.485 6.84C509.711 7.41333 509.825 8.1 509.825 8.9V15H507.625V9.16C507.625 8.16 507.385 7.42 506.905 6.94C506.438 6.44667 505.771 6.2 504.905 6.2C503.945 6.2 503.178 6.48 502.605 7.04C502.031 7.6 501.745 8.44 501.745 9.56V15H499.545V4.36H501.645V5.78C502.045 5.27333 502.565 4.89333 503.205 4.64C503.845 4.37333 504.565 4.24 505.365 4.24ZM518.054 12.62C518.561 12.62 519.021 12.54 519.434 12.38C519.861 12.22 520.228 12 520.534 11.72C520.841 11.44 521.081 11.1 521.254 10.7C521.428 10.3 521.514 9.86 521.514 9.38C521.514 8.9 521.428 8.46667 521.254 8.08C521.081 7.68 520.841 7.34 520.534 7.06C520.228 6.76667 519.861 6.54667 519.434 6.4C519.021 6.24 518.561 6.16 518.054 6.16C517.548 6.16 517.081 6.24 516.654 6.4C516.241 6.54667 515.881 6.76667 515.574 7.06C515.268 7.34 515.028 7.68 514.854 8.08C514.681 8.46667 514.594 8.9 514.594 9.38C514.594 9.86 514.681 10.3 514.854 10.7C515.028 11.1 515.268 11.44 515.574 11.72C515.881 12 516.241 12.22 516.654 12.38C517.081 12.54 517.548 12.62 518.054 12.62ZM517.814 14.54C517.041 14.54 516.321 14.42 515.654 14.18C514.988 13.9267 514.408 13.5733 513.914 13.12C513.434 12.6667 513.054 12.1267 512.774 11.5C512.508 10.86 512.374 10.1533 512.374 9.38C512.374 8.60667 512.508 7.90667 512.774 7.28C513.054 6.64 513.434 6.1 513.914 5.66C514.408 5.20667 514.988 4.86 515.654 4.62C516.321 4.36667 517.041 4.24 517.814 4.24C518.561 4.24 519.254 4.36667 519.894 4.62C520.548 4.87333 521.108 5.26 521.574 5.78V4.36H523.674V13.46C523.674 15.38 523.194 16.78 522.234 17.66C521.288 18.5533 519.888 19 518.034 19C517.541 19 517.048 18.9667 516.554 18.9C516.074 18.8333 515.608 18.7333 515.154 18.6C514.714 18.48 514.301 18.32 513.914 18.12C513.528 17.9333 513.181 17.7133 512.874 17.46L513.934 15.76C514.414 16.16 515.014 16.48 515.734 16.72C516.454 16.96 517.194 17.08 517.954 17.08C519.168 17.08 520.054 16.8 520.614 16.24C521.188 15.68 521.474 14.8333 521.474 13.7V13.1C521.008 13.5933 520.461 13.96 519.834 14.2C519.208 14.4267 518.534 14.54 517.814 14.54ZM534.862 8.86C534.755 8.03333 534.409 7.36667 533.822 6.86C533.249 6.35333 532.522 6.1 531.642 6.1C530.775 6.1 530.049 6.35333 529.462 6.86C528.889 7.35333 528.542 8.02 528.422 8.86H534.862ZM532.022 15.12C531.142 15.12 530.342 14.9867 529.622 14.72C528.915 14.4533 528.309 14.08 527.802 13.6C527.295 13.12 526.902 12.5467 526.622 11.88C526.355 11.2133 526.222 10.48 526.222 9.68C526.222 8.89333 526.355 8.16667 526.622 7.5C526.902 6.83333 527.282 6.26 527.762 5.78C528.242 5.3 528.815 4.92667 529.482 4.66C530.149 4.38 530.869 4.24 531.642 4.24C532.429 4.24 533.142 4.37333 533.782 4.64C534.435 4.90667 534.995 5.28 535.462 5.76C535.942 6.24 536.309 6.82 536.562 7.5C536.829 8.18 536.962 8.93333 536.962 9.76C536.962 9.85333 536.955 9.96667 536.942 10.1C536.942 10.22 536.935 10.3333 536.922 10.44H528.442C528.589 11.28 528.982 11.9533 529.622 12.46C530.262 12.9533 531.082 13.2 532.082 13.2C533.309 13.2 534.302 12.7933 535.062 11.98L536.262 13.4C535.782 13.96 535.182 14.3867 534.462 14.68C533.742 14.9733 532.929 15.12 532.022 15.12ZM541.706 15H539.506V4.36H541.606V5.98C541.952 5.40667 542.446 4.97333 543.086 4.68C543.739 4.38667 544.519 4.24 545.426 4.24V6.38C545.332 6.36667 545.246 6.36 545.166 6.36C545.086 6.34667 545.006 6.34 544.926 6.34C543.926 6.34 543.139 6.63333 542.566 7.22C541.992 7.79333 541.706 8.64667 541.706 9.78V15ZM550.927 15.12C550.034 15.12 549.181 15.0067 548.367 14.78C547.567 14.5533 546.934 14.2667 546.467 13.92L547.387 12.18C547.854 12.4867 548.414 12.74 549.067 12.94C549.734 13.14 550.407 13.24 551.087 13.24C551.927 13.24 552.527 13.1267 552.887 12.9C553.261 12.6733 553.447 12.36 553.447 11.96C553.447 11.6 553.281 11.34 552.947 11.18C552.627 11.0067 552.221 10.8733 551.727 10.78C551.234 10.6867 550.701 10.6 550.127 10.52C549.554 10.44 549.021 10.2933 548.527 10.08C548.034 9.86667 547.621 9.56667 547.287 9.18C546.967 8.78 546.807 8.22667 546.807 7.52C546.807 7.01333 546.914 6.56 547.127 6.16C547.341 5.76 547.647 5.42 548.047 5.14C548.447 4.84667 548.927 4.62667 549.487 4.48C550.047 4.32 550.674 4.24 551.367 4.24C551.714 4.24 552.067 4.26667 552.427 4.32C552.801 4.36 553.161 4.42 553.507 4.5C553.854 4.58 554.181 4.68 554.487 4.8C554.794 4.90667 555.067 5.03333 555.307 5.18L554.387 6.92C553.881 6.61333 553.374 6.40667 552.867 6.3C552.361 6.18 551.854 6.12 551.347 6.12C550.547 6.12 549.954 6.24 549.567 6.48C549.181 6.72 548.987 7.03333 548.987 7.42C548.987 7.80667 549.147 8.08667 549.467 8.26C549.801 8.43333 550.214 8.57333 550.707 8.68C551.201 8.78667 551.734 8.88667 552.307 8.98C552.881 9.06 553.414 9.2 553.907 9.4C554.401 9.6 554.807 9.89333 555.127 10.28C555.461 10.6667 555.627 11.2067 555.627 11.9C555.627 12.3933 555.514 12.84 555.287 13.24C555.074 13.64 554.761 13.98 554.347 14.26C553.934 14.54 553.441 14.7533 552.867 14.9C552.294 15.0467 551.647 15.12 550.927 15.12Z" fill="#00B894"/>
<path d="M842.36 284.18C841.293 284.18 840.307 284 839.4 283.64C838.493 283.28 837.707 282.787 837.04 282.16C836.373 281.52 835.853 280.76 835.48 279.88C835.107 279 834.92 278.04 834.92 277C834.92 275.96 835.107 275 835.48 274.12C835.853 273.24 836.373 272.487 837.04 271.86C837.707 271.22 838.493 270.72 839.4 270.36C840.32 270 841.313 269.82 842.38 269.82C843.5 269.82 844.52 270.013 845.44 270.4C846.373 270.773 847.16 271.333 847.8 272.08L846.32 273.52C845.293 272.413 844.013 271.86 842.48 271.86C841.72 271.86 841.02 271.987 840.38 272.24C839.74 272.493 839.18 272.853 838.7 273.32C838.233 273.773 837.867 274.313 837.6 274.94C837.347 275.567 837.22 276.253 837.22 277C837.22 277.747 837.347 278.433 837.6 279.06C837.867 279.687 838.233 280.233 838.7 280.7C839.18 281.153 839.74 281.507 840.38 281.76C841.02 282.013 841.72 282.14 842.48 282.14C844.013 282.14 845.293 281.58 846.32 280.46L847.8 281.9C847.16 282.66 846.373 283.233 845.44 283.62C844.52 283.993 843.493 284.18 842.36 284.18ZM856.052 273.24C856.692 273.24 857.286 273.333 857.832 273.52C858.379 273.707 858.852 273.993 859.252 274.38C859.652 274.767 859.959 275.253 860.172 275.84C860.399 276.413 860.512 277.1 860.512 277.9V284H858.312V278.16C858.312 277.16 858.072 276.42 857.592 275.94C857.126 275.447 856.459 275.2 855.592 275.2C854.632 275.2 853.866 275.48 853.292 276.04C852.719 276.6 852.432 277.44 852.432 278.56V284H850.232V269.16H852.432V274.66C852.832 274.193 853.346 273.84 853.972 273.6C854.599 273.36 855.292 273.24 856.052 273.24ZM870.345 279.38H867.545C867.091 279.38 866.718 279.42 866.425 279.5C866.131 279.58 865.898 279.687 865.725 279.82C865.551 279.953 865.431 280.113 865.365 280.3C865.298 280.487 865.265 280.68 865.265 280.88C865.265 281.36 865.458 281.74 865.845 282.02C866.231 282.3 866.765 282.44 867.445 282.44C868.111 282.44 868.705 282.293 869.225 282C869.745 281.707 870.118 281.273 870.345 280.7V279.38ZM867.065 284.12C866.465 284.12 865.918 284.047 865.425 283.9C864.931 283.74 864.511 283.52 864.165 283.24C863.818 282.96 863.551 282.627 863.365 282.24C863.178 281.853 863.085 281.427 863.085 280.96C863.085 280.52 863.158 280.113 863.305 279.74C863.465 279.353 863.711 279.02 864.045 278.74C864.391 278.447 864.845 278.22 865.405 278.06C865.965 277.887 866.645 277.8 867.445 277.8H870.345V277.56C870.345 276.8 870.111 276.207 869.645 275.78C869.191 275.353 868.505 275.14 867.585 275.14C866.971 275.14 866.371 275.24 865.785 275.44C865.198 275.627 864.698 275.887 864.285 276.22L863.385 274.58C863.945 274.14 864.611 273.807 865.385 273.58C866.158 273.353 866.978 273.24 867.845 273.24C869.338 273.24 870.491 273.607 871.305 274.34C872.131 275.06 872.545 276.173 872.545 277.68V284H870.445V282.76C870.138 283.187 869.698 283.52 869.125 283.76C868.551 284 867.865 284.12 867.065 284.12ZM878.116 284H875.916V273.36H878.016V274.98C878.362 274.407 878.856 273.973 879.496 273.68C880.149 273.387 880.929 273.24 881.836 273.24V275.38C881.742 275.367 881.656 275.36 881.576 275.36C881.496 275.347 881.416 275.34 881.336 275.34C880.336 275.34 879.549 275.633 878.976 276.22C878.402 276.793 878.116 277.647 878.116 278.78V284ZM889.97 275.16H887.01V280.6C887.01 281.147 887.143 281.567 887.41 281.86C887.69 282.14 888.083 282.28 888.59 282.28C889.163 282.28 889.643 282.127 890.03 281.82L890.69 283.4C890.383 283.64 890.023 283.82 889.61 283.94C889.196 284.06 888.77 284.12 888.33 284.12C887.196 284.12 886.323 283.827 885.71 283.24C885.11 282.653 884.81 281.793 884.81 280.66V275.16H883.03V273.36H884.81V271.02H887.01V273.36H889.97V275.16ZM895.088 284H892.888V273.36H894.988V274.98C895.335 274.407 895.828 273.973 896.468 273.68C897.122 273.387 897.902 273.24 898.808 273.24V275.38C898.715 275.367 898.628 275.36 898.548 275.36C898.468 275.347 898.388 275.34 898.308 275.34C897.308 275.34 896.522 275.633 895.948 276.22C895.375 276.793 895.088 277.647 895.088 278.78V284ZM908.674 277.86C908.568 277.033 908.221 276.367 907.634 275.86C907.061 275.353 906.334 275.1 905.454 275.1C904.588 275.1 903.861 275.353 903.274 275.86C902.701 276.353 902.354 277.02 902.234 277.86H908.674ZM905.834 284.12C904.954 284.12 904.154 283.987 903.434 283.72C902.728 283.453 902.121 283.08 901.614 282.6C901.108 282.12 900.714 281.547 900.434 280.88C900.168 280.213 900.034 279.48 900.034 278.68C900.034 277.893 900.168 277.167 900.434 276.5C900.714 275.833 901.094 275.26 901.574 274.78C902.054 274.3 902.628 273.927 903.294 273.66C903.961 273.38 904.681 273.24 905.454 273.24C906.241 273.24 906.954 273.373 907.594 273.64C908.248 273.907 908.808 274.28 909.274 274.76C909.754 275.24 910.121 275.82 910.374 276.5C910.641 277.18 910.774 277.933 910.774 278.76C910.774 278.853 910.768 278.967 910.754 279.1C910.754 279.22 910.748 279.333 910.734 279.44H902.254C902.401 280.28 902.794 280.953 903.434 281.46C904.074 281.953 904.894 282.2 905.894 282.2C907.121 282.2 908.114 281.793 908.874 280.98L910.074 282.4C909.594 282.96 908.994 283.387 908.274 283.68C907.554 283.973 906.741 284.12 905.834 284.12ZM916.478 284.12C915.585 284.12 914.731 284.007 913.918 283.78C913.118 283.553 912.485 283.267 912.018 282.92L912.938 281.18C913.405 281.487 913.965 281.74 914.618 281.94C915.285 282.14 915.958 282.24 916.638 282.24C917.478 282.24 918.078 282.127 918.438 281.9C918.811 281.673 918.998 281.36 918.998 280.96C918.998 280.6 918.831 280.34 918.498 280.18C918.178 280.007 917.771 279.873 917.278 279.78C916.785 279.687 916.251 279.6 915.678 279.52C915.105 279.44 914.571 279.293 914.078 279.08C913.585 278.867 913.171 278.567 912.838 278.18C912.518 277.78 912.358 277.227 912.358 276.52C912.358 276.013 912.465 275.56 912.678 275.16C912.891 274.76 913.198 274.42 913.598 274.14C913.998 273.847 914.478 273.627 915.038 273.48C915.598 273.32 916.225 273.24 916.918 273.24C917.265 273.24 917.618 273.267 917.978 273.32C918.351 273.36 918.711 273.42 919.058 273.5C919.405 273.58 919.731 273.68 920.038 273.8C920.345 273.907 920.618 274.033 920.858 274.18L919.938 275.92C919.431 275.613 918.925 275.407 918.418 275.3C917.911 275.18 917.405 275.12 916.898 275.12C916.098 275.12 915.505 275.24 915.118 275.48C914.731 275.72 914.538 276.033 914.538 276.42C914.538 276.807 914.698 277.087 915.018 277.26C915.351 277.433 915.765 277.573 916.258 277.68C916.751 277.787 917.285 277.887 917.858 277.98C918.431 278.06 918.965 278.2 919.458 278.4C919.951 278.6 920.358 278.893 920.678 279.28C921.011 279.667 921.178 280.207 921.178 280.9C921.178 281.393 921.065 281.84 920.838 282.24C920.625 282.64 920.311 282.98 919.898 283.26C919.485 283.54 918.991 283.753 918.418 283.9C917.845 284.047 917.198 284.12 916.478 284.12Z" fill="#00B894"/>
<path d="M997.02 10H1002.6C1003.52 10 1004.34 10.1133 1005.06 10.34C1005.79 10.5667 1006.41 10.8933 1006.92 11.32C1007.43 11.7467 1007.81 12.2667 1008.08 12.88C1008.36 13.48 1008.5 14.1667 1008.5 14.94C1008.5 15.7 1008.36 16.3867 1008.08 17C1007.81 17.6133 1007.43 18.1333 1006.92 18.56C1006.41 18.9733 1005.79 19.2933 1005.06 19.52C1004.34 19.7467 1003.52 19.86 1002.6 19.86H999.28V24H997V17.88H1002.52C1003.73 17.88 1004.65 17.6267 1005.26 17.12C1005.89 16.6 1006.2 15.8733 1006.2 14.94C1006.2 13.9933 1005.89 13.2667 1005.26 12.76C1004.65 12.24 1003.73 11.98 1002.52 11.98H997L997.02 10ZM1017.38 19.38H1014.58C1014.13 19.38 1013.75 19.42 1013.46 19.5C1013.17 19.58 1012.93 19.6867 1012.76 19.82C1012.59 19.9533 1012.47 20.1133 1012.4 20.3C1012.33 20.4867 1012.3 20.68 1012.3 20.88C1012.3 21.36 1012.49 21.74 1012.88 22.02C1013.27 22.3 1013.8 22.44 1014.48 22.44C1015.15 22.44 1015.74 22.2933 1016.26 22C1016.78 21.7067 1017.15 21.2733 1017.38 20.7V19.38ZM1014.1 24.12C1013.5 24.12 1012.95 24.0467 1012.46 23.9C1011.97 23.74 1011.55 23.52 1011.2 23.24C1010.85 22.96 1010.59 22.6267 1010.4 22.24C1010.21 21.8533 1010.12 21.4267 1010.12 20.96C1010.12 20.52 1010.19 20.1133 1010.34 19.74C1010.5 19.3533 1010.75 19.02 1011.08 18.74C1011.43 18.4467 1011.88 18.22 1012.44 18.06C1013 17.8867 1013.68 17.8 1014.48 17.8H1017.38V17.56C1017.38 16.8 1017.15 16.2067 1016.68 15.78C1016.23 15.3533 1015.54 15.14 1014.62 15.14C1014.01 15.14 1013.41 15.24 1012.82 15.44C1012.23 15.6267 1011.73 15.8867 1011.32 16.22L1010.42 14.58C1010.98 14.14 1011.65 13.8067 1012.42 13.58C1013.19 13.3533 1014.01 13.24 1014.88 13.24C1016.37 13.24 1017.53 13.6067 1018.34 14.34C1019.17 15.06 1019.58 16.1733 1019.58 17.68V24H1017.48V22.76C1017.17 23.1867 1016.73 23.52 1016.16 23.76C1015.59 24 1014.9 24.12 1014.1 24.12ZM1025.15 24H1022.95V13.36H1025.05V14.98C1025.4 14.4067 1025.89 13.9733 1026.53 13.68C1027.18 13.3867 1027.96 13.24 1028.87 13.24V15.38C1028.78 15.3667 1028.69 15.36 1028.61 15.36C1028.53 15.3467 1028.45 15.34 1028.37 15.34C1027.37 15.34 1026.58 15.6333 1026.01 16.22C1025.44 16.7933 1025.15 17.6467 1025.15 18.78V24ZM1031.11 24V13.36H1033.31V24H1031.11ZM1032.21 11.46C1031.8 11.46 1031.45 11.3267 1031.17 11.06C1030.91 10.7933 1030.77 10.4667 1030.77 10.08C1030.77 9.69333 1030.91 9.36667 1031.17 9.1C1031.45 8.83333 1031.8 8.7 1032.21 8.7C1032.63 8.7 1032.97 8.82667 1033.23 9.08C1033.51 9.33333 1033.65 9.65333 1033.65 10.04C1033.65 10.44 1033.52 10.78 1033.25 11.06C1032.99 11.3267 1032.64 11.46 1032.21 11.46ZM1039.98 24.12C1039.08 24.12 1038.23 24.0067 1037.42 23.78C1036.62 23.5533 1035.98 23.2667 1035.52 22.92L1036.44 21.18C1036.9 21.4867 1037.46 21.74 1038.12 21.94C1038.78 22.14 1039.46 22.24 1040.14 22.24C1040.98 22.24 1041.58 22.1267 1041.94 21.9C1042.31 21.6733 1042.5 21.36 1042.5 20.96C1042.5 20.6 1042.33 20.34 1042 20.18C1041.68 20.0067 1041.27 19.8733 1040.78 19.78C1040.28 19.6867 1039.75 19.6 1039.18 19.52C1038.6 19.44 1038.07 19.2933 1037.58 19.08C1037.08 18.8667 1036.67 18.5667 1036.34 18.18C1036.02 17.78 1035.86 17.2267 1035.86 16.52C1035.86 16.0133 1035.96 15.56 1036.18 15.16C1036.39 14.76 1036.7 14.42 1037.1 14.14C1037.5 13.8467 1037.98 13.6267 1038.54 13.48C1039.1 13.32 1039.72 13.24 1040.42 13.24C1040.76 13.24 1041.12 13.2667 1041.48 13.32C1041.85 13.36 1042.21 13.42 1042.56 13.5C1042.9 13.58 1043.23 13.68 1043.54 13.8C1043.84 13.9067 1044.12 14.0333 1044.36 14.18L1043.44 15.92C1042.93 15.6133 1042.42 15.4067 1041.92 15.3C1041.41 15.18 1040.9 15.12 1040.4 15.12C1039.6 15.12 1039 15.24 1038.62 15.48C1038.23 15.72 1038.04 16.0333 1038.04 16.42C1038.04 16.8067 1038.2 17.0867 1038.52 17.26C1038.85 17.4333 1039.26 17.5733 1039.76 17.68C1040.25 17.7867 1040.78 17.8867 1041.36 17.98C1041.93 18.06 1042.46 18.2 1042.96 18.4C1043.45 18.6 1043.86 18.8933 1044.18 19.28C1044.51 19.6667 1044.68 20.2067 1044.68 20.9C1044.68 21.3933 1044.56 21.84 1044.34 22.24C1044.12 22.64 1043.81 22.98 1043.4 23.26C1042.98 23.54 1042.49 23.7533 1041.92 23.9C1041.34 24.0467 1040.7 24.12 1039.98 24.12Z" fill="#00B894"/>
<path d="M15.28 71H13V57H14.88L22.94 66.94V57H25.22V71H23.34L15.28 61.06V71ZM35.4109 66.38H32.6109C32.1576 66.38 31.7843 66.42 31.4909 66.5C31.1976 66.58 30.9643 66.6867 30.7909 66.82C30.6176 66.9533 30.4976 67.1133 30.4309 67.3C30.3643 67.4867 30.3309 67.68 30.3309 67.88C30.3309 68.36 30.5243 68.74 30.9109 69.02C31.2976 69.3 31.8309 69.44 32.5109 69.44C33.1776 69.44 33.7709 69.2933 34.2909 69C34.8109 68.7067 35.1843 68.2733 35.4109 67.7V66.38ZM32.1309 71.12C31.5309 71.12 30.9843 71.0467 30.4909 70.9C29.9976 70.74 29.5776 70.52 29.2309 70.24C28.8843 69.96 28.6176 69.6267 28.4309 69.24C28.2443 68.8533 28.1509 68.4267 28.1509 67.96C28.1509 67.52 28.2243 67.1133 28.3709 66.74C28.5309 66.3533 28.7776 66.02 29.1109 65.74C29.4576 65.4467 29.9109 65.22 30.4709 65.06C31.0309 64.8867 31.7109 64.8 32.5109 64.8H35.4109V64.56C35.4109 63.8 35.1776 63.2067 34.7109 62.78C34.2576 62.3533 33.5709 62.14 32.6509 62.14C32.0376 62.14 31.4376 62.24 30.8509 62.44C30.2643 62.6267 29.7643 62.8867 29.3509 63.22L28.4509 61.58C29.0109 61.14 29.6776 60.8067 30.4509 60.58C31.2243 60.3533 32.0443 60.24 32.9109 60.24C34.4043 60.24 35.5576 60.6067 36.3709 61.34C37.1976 62.06 37.6109 63.1733 37.6109 64.68V71H35.5109V69.76C35.2043 70.1867 34.7643 70.52 34.1909 70.76C33.6176 71 32.9309 71.12 32.1309 71.12ZM46.8022 60.24C47.4422 60.24 48.0355 60.3333 48.5822 60.52C49.1289 60.7067 49.6022 60.9933 50.0022 61.38C50.4022 61.7667 50.7089 62.2533 50.9222 62.84C51.1489 63.4133 51.2622 64.1 51.2622 64.9V71H49.0622V65.16C49.0622 64.16 48.8222 63.42 48.3422 62.94C47.8755 62.4467 47.2089 62.2 46.3422 62.2C45.3822 62.2 44.6155 62.48 44.0422 63.04C43.4689 63.6 43.1822 64.44 43.1822 65.56V71H40.9822V60.36H43.0822V61.78C43.4822 61.2733 44.0022 60.8933 44.6422 60.64C45.2822 60.3733 46.0022 60.24 46.8022 60.24ZM60.0945 62.16H57.1345V67.6C57.1345 68.1467 57.2679 68.5667 57.5345 68.86C57.8145 69.14 58.2079 69.28 58.7145 69.28C59.2879 69.28 59.7679 69.1267 60.1545 68.82L60.8145 70.4C60.5079 70.64 60.1479 70.82 59.7345 70.94C59.3212 71.06 58.8945 71.12 58.4545 71.12C57.3212 71.12 56.4479 70.8267 55.8345 70.24C55.2345 69.6533 54.9345 68.7933 54.9345 67.66V62.16H53.1545V60.36H54.9345V58.02H57.1345V60.36H60.0945V62.16ZM70.3619 64.86C70.2552 64.0333 69.9085 63.3667 69.3219 62.86C68.7485 62.3533 68.0219 62.1 67.1419 62.1C66.2752 62.1 65.5485 62.3533 64.9619 62.86C64.3885 63.3533 64.0419 64.02 63.9219 64.86H70.3619ZM67.5219 71.12C66.6419 71.12 65.8419 70.9867 65.1219 70.72C64.4152 70.4533 63.8085 70.08 63.3019 69.6C62.7952 69.12 62.4019 68.5467 62.1219 67.88C61.8552 67.2133 61.7219 66.48 61.7219 65.68C61.7219 64.8933 61.8552 64.1667 62.1219 63.5C62.4019 62.8333 62.7819 62.26 63.2619 61.78C63.7419 61.3 64.3152 60.9267 64.9819 60.66C65.6485 60.38 66.3685 60.24 67.1419 60.24C67.9285 60.24 68.6419 60.3733 69.2819 60.64C69.9352 60.9067 70.4952 61.28 70.9619 61.76C71.4419 62.24 71.8085 62.82 72.0619 63.5C72.3285 64.18 72.4619 64.9333 72.4619 65.76C72.4619 65.8533 72.4552 65.9667 72.4419 66.1C72.4419 66.22 72.4352 66.3333 72.4219 66.44H63.9419C64.0885 67.28 64.4819 67.9533 65.1219 68.46C65.7619 68.9533 66.5819 69.2 67.5819 69.2C68.8085 69.2 69.8019 68.7933 70.5619 67.98L71.7619 69.4C71.2819 69.96 70.6819 70.3867 69.9619 70.68C69.2419 70.9733 68.4285 71.12 67.5219 71.12ZM78.1656 71.12C77.2723 71.12 76.419 71.0067 75.6056 70.78C74.8056 70.5533 74.1723 70.2667 73.7056 69.92L74.6256 68.18C75.0923 68.4867 75.6523 68.74 76.3056 68.94C76.9723 69.14 77.6456 69.24 78.3256 69.24C79.1656 69.24 79.7656 69.1267 80.1256 68.9C80.499 68.6733 80.6856 68.36 80.6856 67.96C80.6856 67.6 80.519 67.34 80.1856 67.18C79.8656 67.0067 79.459 66.8733 78.9656 66.78C78.4723 66.6867 77.939 66.6 77.3656 66.52C76.7923 66.44 76.259 66.2933 75.7656 66.08C75.2723 65.8667 74.859 65.5667 74.5256 65.18C74.2056 64.78 74.0456 64.2267 74.0456 63.52C74.0456 63.0133 74.1523 62.56 74.3656 62.16C74.579 61.76 74.8856 61.42 75.2856 61.14C75.6856 60.8467 76.1656 60.6267 76.7256 60.48C77.2856 60.32 77.9123 60.24 78.6056 60.24C78.9523 60.24 79.3056 60.2667 79.6656 60.32C80.039 60.36 80.399 60.42 80.7456 60.5C81.0923 60.58 81.419 60.68 81.7256 60.8C82.0323 60.9067 82.3056 61.0333 82.5456 61.18L81.6256 62.92C81.119 62.6133 80.6123 62.4067 80.1056 62.3C79.599 62.18 79.0923 62.12 78.5856 62.12C77.7856 62.12 77.1923 62.24 76.8056 62.48C76.419 62.72 76.2256 63.0333 76.2256 63.42C76.2256 63.8067 76.3856 64.0867 76.7056 64.26C77.039 64.4333 77.4523 64.5733 77.9456 64.68C78.439 64.7867 78.9723 64.8867 79.5456 64.98C80.119 65.06 80.6523 65.2 81.1456 65.4C81.639 65.6 82.0456 65.8933 82.3656 66.28C82.699 66.6667 82.8656 67.2067 82.8656 67.9C82.8656 68.3933 82.7523 68.84 82.5256 69.24C82.3123 69.64 81.999 69.98 81.5856 70.26C81.1723 70.54 80.679 70.7533 80.1056 70.9C79.5323 71.0467 78.8856 71.12 78.1656 71.12Z" fill="#00B894"/>
<path d="M265.3 249H262.94L269.26 235H271.52L277.86 249H275.46L270.38 237.32L265.3 249ZM285.365 238.24C286.005 238.24 286.598 238.333 287.145 238.52C287.691 238.707 288.165 238.993 288.565 239.38C288.965 239.767 289.271 240.253 289.485 240.84C289.711 241.413 289.825 242.1 289.825 242.9V249H287.625V243.16C287.625 242.16 287.385 241.42 286.905 240.94C286.438 240.447 285.771 240.2 284.905 240.2C283.945 240.2 283.178 240.48 282.605 241.04C282.031 241.6 281.745 242.44 281.745 243.56V249H279.545V238.36H281.645V239.78C282.045 239.273 282.565 238.893 283.205 238.64C283.845 238.373 284.565 238.24 285.365 238.24ZM299.017 238.24C299.657 238.24 300.25 238.333 300.797 238.52C301.344 238.707 301.817 238.993 302.217 239.38C302.617 239.767 302.924 240.253 303.137 240.84C303.364 241.413 303.477 242.1 303.477 242.9V249H301.277V243.16C301.277 242.16 301.037 241.42 300.557 240.94C300.09 240.447 299.424 240.2 298.557 240.2C297.597 240.2 296.83 240.48 296.257 241.04C295.684 241.6 295.397 242.44 295.397 243.56V249H293.197V238.36H295.297V239.78C295.697 239.273 296.217 238.893 296.857 238.64C297.497 238.373 298.217 238.24 299.017 238.24ZM314.667 242.86C314.56 242.033 314.213 241.367 313.627 240.86C313.053 240.353 312.327 240.1 311.447 240.1C310.58 240.1 309.853 240.353 309.267 240.86C308.693 241.353 308.347 242.02 308.227 242.86H314.667ZM311.827 249.12C310.947 249.12 310.147 248.987 309.427 248.72C308.72 248.453 308.113 248.08 307.607 247.6C307.1 247.12 306.707 246.547 306.427 245.88C306.16 245.213 306.027 244.48 306.027 243.68C306.027 242.893 306.16 242.167 306.427 241.5C306.707 240.833 307.087 240.26 307.567 239.78C308.047 239.3 308.62 238.927 309.287 238.66C309.953 238.38 310.673 238.24 311.447 238.24C312.233 238.24 312.947 238.373 313.587 238.64C314.24 238.907 314.8 239.28 315.267 239.76C315.747 240.24 316.113 240.82 316.367 241.5C316.633 242.18 316.767 242.933 316.767 243.76C316.767 243.853 316.76 243.967 316.747 244.1C316.747 244.22 316.74 244.333 316.727 244.44H308.247C308.393 245.28 308.787 245.953 309.427 246.46C310.067 246.953 310.887 247.2 311.887 247.2C313.113 247.2 314.107 246.793 314.867 245.98L316.067 247.4C315.587 247.96 314.987 248.387 314.267 248.68C313.547 248.973 312.733 249.12 311.827 249.12ZM324.05 249.12C323.224 249.12 322.464 248.987 321.77 248.72C321.077 248.453 320.477 248.08 319.97 247.6C319.464 247.12 319.07 246.547 318.79 245.88C318.51 245.213 318.37 244.48 318.37 243.68C318.37 242.88 318.51 242.147 318.79 241.48C319.07 240.813 319.464 240.24 319.97 239.76C320.477 239.28 321.077 238.907 321.77 238.64C322.464 238.373 323.224 238.24 324.05 238.24C325.05 238.24 325.937 238.44 326.71 238.84C327.484 239.24 328.077 239.833 328.49 240.62L326.81 241.66C326.477 241.153 326.07 240.78 325.59 240.54C325.11 240.287 324.59 240.16 324.03 240.16C323.537 240.16 323.077 240.247 322.65 240.42C322.237 240.58 321.877 240.813 321.57 241.12C321.264 241.413 321.024 241.78 320.85 242.22C320.677 242.647 320.59 243.133 320.59 243.68C320.59 244.227 320.677 244.72 320.85 245.16C321.024 245.587 321.264 245.953 321.57 246.26C321.877 246.567 322.237 246.8 322.65 246.96C323.077 247.12 323.537 247.2 324.03 247.2C324.59 247.2 325.11 247.08 325.59 246.84C326.07 246.6 326.477 246.22 326.81 245.7L328.49 246.74C328.077 247.513 327.484 248.107 326.71 248.52C325.937 248.92 325.05 249.12 324.05 249.12ZM334.737 246.56L338.257 238.36H340.397L335.317 249.96C335.077 250.547 334.817 251.033 334.537 251.42C334.257 251.807 333.95 252.113 333.617 252.34C333.297 252.58 332.95 252.747 332.577 252.84C332.203 252.947 331.803 253 331.377 253C330.857 253 330.343 252.913 329.837 252.74C329.343 252.58 328.923 252.34 328.577 252.02L329.497 250.38C329.75 250.62 330.037 250.807 330.357 250.94C330.69 251.073 331.03 251.14 331.377 251.14C331.83 251.14 332.203 251.02 332.497 250.78C332.79 250.553 333.063 250.153 333.317 249.58L333.577 249L328.917 238.36H331.197L334.737 246.56Z" fill="#003127"/>
<path d="M41.1692 87.3705C40.6125 87.4682 40.041 87.5886 39.9074 87.6487C39.7219 87.7239 39.0242 87.7465 36.7383 87.7465H33.8067L33.1238 87.9871C31.9735 88.3931 31.4762 88.7014 30.4742 89.6113C29.732 90.2881 29.0195 91.2054 28.5965 92.0251L28.2551 92.6943L28.3367 93.2658C28.3887 93.6343 28.3887 93.9726 28.3442 94.2133C28.2774 94.5968 28.2106 94.7396 27.216 96.6571C26.9043 97.2587 26.6445 97.8377 26.6445 97.958C26.6445 98.0708 26.5777 98.4016 26.4961 98.6949C26.1918 99.8304 26.2363 101.221 26.652 103.5C27.216 106.553 27.7059 108.26 28.2551 109.072C28.886 110.004 30.0586 113.042 30.3184 114.411C30.3777 114.757 30.4965 115.223 30.5781 115.448C30.6598 115.682 30.7563 116.148 30.8008 116.494C30.8676 117.08 31.3055 118.321 31.4762 118.434C31.5133 118.456 31.6543 118.351 31.7953 118.208C31.9735 118.013 32.107 117.937 32.2703 117.937C32.4781 117.937 32.5078 117.907 32.5598 117.652C32.5895 117.501 32.6117 116.426 32.6192 115.268C32.6192 113.035 32.5895 112.787 32.1367 110.944C32.0551 110.636 31.9438 110.095 31.877 109.741C31.8102 109.388 31.6766 108.846 31.5801 108.538C31.4836 108.23 31.3426 107.583 31.2758 107.109C31.1645 106.357 31.1645 106.117 31.2461 105.229C31.3055 104.583 31.402 104.019 31.5133 103.665C31.6098 103.365 31.6914 103.079 31.6914 103.026C31.6914 102.974 31.7953 102.808 31.9215 102.65L32.1442 102.372H32.9309C33.6508 102.372 33.7399 102.357 33.9551 102.191C34.0813 102.086 34.3113 101.77 34.4598 101.485C34.6082 101.199 34.8828 100.823 35.0684 100.65C35.3578 100.379 35.4395 100.342 35.7512 100.342C36.1965 100.342 36.6418 100.59 36.8422 100.943C37.0649 101.327 37.0277 102.658 36.7828 103.259C36.6863 103.5 36.5824 103.771 36.5527 103.876C36.5231 103.981 36.3524 104.365 36.1742 104.741C35.9961 105.109 35.7438 105.786 35.6176 106.245C35.4988 106.696 35.2762 107.433 35.1352 107.884C34.9942 108.327 34.7492 109.373 34.586 110.215C34.4227 111.049 34.2074 111.922 34.111 112.147C33.9996 112.403 33.8735 112.982 33.7695 113.651C33.6879 114.253 33.5766 114.877 33.532 115.042C33.4578 115.328 33.3168 116.23 33.1758 117.336C33.1387 117.607 33.1313 117.945 33.1535 118.103C33.1832 118.313 33.1387 118.494 32.9309 118.93C32.7899 119.231 32.6488 119.614 32.6192 119.78C32.5375 120.261 32.4113 120.434 31.5875 121.156C30.6449 121.99 30.5633 122.103 30.593 122.539L30.6152 122.863L31.2832 122.908C31.6543 122.938 32.4188 122.998 32.9977 123.051C33.918 123.133 34.1406 123.133 34.8309 123.021C35.2613 122.953 35.8699 122.9 36.1817 122.9C36.7086 122.9 36.768 122.885 36.961 122.682C37.1465 122.494 37.1688 122.434 37.1168 122.239C36.9832 121.765 36.9387 120.208 37.0352 119.366C37.1242 118.622 37.1242 118.509 36.9981 118.095C36.909 117.795 36.8867 117.561 36.9164 117.358C37.0352 116.712 37.4285 115.486 37.6957 114.945C37.8516 114.629 38.0891 114.057 38.2227 113.689C38.3563 113.313 38.6606 112.614 38.8981 112.132C39.143 111.644 39.336 111.2 39.336 111.14C39.336 110.952 40.5012 108.651 40.9242 107.989C41.1543 107.643 41.3399 107.29 41.3399 107.207C41.3399 107.019 41.5625 106.808 41.7629 106.808C41.9633 106.808 42.0895 106.974 42.1563 107.32C42.1934 107.47 42.2824 107.854 42.3641 108.17C42.4754 108.598 42.5348 109.185 42.6016 110.538C42.6461 111.523 42.7352 112.741 42.7945 113.238C42.8688 113.862 42.9059 115.05 42.9207 117.035C42.9356 120.351 42.9801 120.103 42.2379 120.862C41.7852 121.314 41.6145 121.675 41.5106 122.419C41.4586 122.795 41.5551 122.848 42.082 122.75C42.2899 122.712 42.9801 122.697 43.6258 122.727C44.509 122.757 44.8652 122.75 45.0582 122.675C45.2067 122.615 45.7262 122.569 46.3496 122.554C46.9211 122.539 47.4926 122.502 47.6113 122.464C47.8117 122.412 47.834 122.366 47.8563 122.081C47.8711 121.908 47.834 121.532 47.7672 121.261C47.7078 120.983 47.641 120.539 47.6113 120.268C47.5817 119.998 47.4777 119.592 47.3813 119.366C46.8988 118.231 46.7207 116.584 46.9211 115.042C46.9656 114.666 47.0102 114.087 47.0102 113.741C47.0176 113.193 47.0399 113.102 47.1809 112.99C47.411 112.809 47.5371 112.11 47.4184 111.681C47.3145 111.275 47.3813 110.298 47.5594 109.696C47.6633 109.358 47.7375 109.23 47.8934 109.155C48.0789 109.064 48.1309 109.072 48.45 109.275C48.643 109.403 49.1328 109.591 49.541 109.703C50.2461 109.899 50.3426 109.907 51.3223 109.854C52.5766 109.794 53.2445 109.794 53.5785 109.854C53.8828 109.914 54.5731 110.553 54.7883 110.974C54.9664 111.328 55.0629 112.275 55.0703 113.696C55.0703 114.869 54.9664 115.441 54.4988 116.96C54.15 118.088 53.8754 118.712 53.4152 119.464C53.1258 119.945 52.9922 120.441 52.9922 121.028C52.9922 121.329 53.0293 121.441 53.1777 121.592C53.3559 121.772 53.4004 121.78 53.9051 121.742C54.202 121.72 55.2262 121.682 56.1836 121.652C57.1633 121.629 58.0391 121.569 58.1727 121.517C58.425 121.434 58.425 121.426 58.4324 120.945C58.4473 119.968 58.3285 118.885 58.1652 118.464C58.0242 118.095 58.0094 117.9 58.0094 116.772V115.494L58.3582 114.381C58.5586 113.772 58.8852 112.892 59.0856 112.426C59.6274 111.2 59.902 110.952 60.7629 110.929C61.3492 110.914 61.6906 111.057 61.8613 111.388C61.9207 111.508 62.032 111.907 62.1137 112.275C62.1953 112.636 62.366 113.23 62.4922 113.591C62.611 113.96 62.7149 114.381 62.7149 114.546C62.7149 114.704 62.7817 115.223 62.8559 115.689C62.9375 116.193 63.0117 117.125 63.0414 117.937C63.086 119.449 63.0637 119.554 62.6258 120.208C62.4254 120.509 62.2992 121.081 62.4031 121.186C62.4477 121.231 62.9524 121.253 63.5387 121.246C64.125 121.246 64.7559 121.238 64.9414 121.238C65.127 121.238 65.5203 121.261 65.8098 121.284C66.2774 121.329 66.359 121.321 66.3961 121.216C66.4481 121.081 66.3738 120.765 65.6168 117.734C65.3645 116.734 65.1121 115.569 65.0528 115.14C64.9934 114.712 64.9043 114.23 64.8672 114.065C64.741 113.553 64.6149 110.846 64.6297 108.876C64.6445 107.057 64.652 106.959 64.8895 105.793C65.0305 105.132 65.216 104.387 65.3051 104.139C65.5426 103.507 65.6762 102.65 65.7281 101.432C65.7875 100.139 65.691 99.3792 65.3422 98.3565C65.2012 97.943 65.0899 97.4692 65.0899 97.2963C65.0899 97.0707 64.9785 96.7549 64.6965 96.1608C64.4738 95.7097 64.125 94.9051 63.9098 94.3712C63.6945 93.8373 63.3977 93.2132 63.2492 92.9801C62.7668 92.2356 62.1434 91.431 61.891 91.228C61.75 91.1227 61.3715 90.7919 61.0449 90.4986C60.377 89.8895 59.6422 89.4835 58.9668 89.3481C58.1578 89.1902 53.4375 89.3331 51.8641 89.5587C51.4039 89.6263 50.5207 89.6865 49.9121 89.694C48.9176 89.7015 48.7692 89.6865 48.5762 89.5512C48.2942 89.3632 46.7875 88.6789 45.9043 88.333C45.5406 88.1901 45.0063 87.9796 44.7168 87.8593C44.1527 87.6262 42.9652 87.2878 42.4902 87.2276C42.327 87.2126 41.7332 87.2727 41.1692 87.3705Z" fill="#00B894"/>
<defs>
<clipPath id="clip0_169_35">
<rect width="42" height="42" fill="white" transform="translate(857 300)"/>
</clipPath>
<clipPath id="clip1_169_35">
<rect width="42" height="42" fill="white" transform="translate(499 29)"/>
</clipPath>
<clipPath id="clip2_169_35">
<rect width="42" height="42" fill="white" transform="translate(281 267)"/>
</clipPath>
</defs>
</svg>
